<?xml version="1.0" encoding="utf-8"?>
<!-- Generator: Adobe Illustrator 19.2.1, SVG Export Plug-In . SVG Version: 6.00 Build 0)  -->
<svg version="1.1" id="Layer_1" xmlns="http://www.w3.org/2000/svg" xmlns:xlink="http://www.w3.org/1999/xlink" x="0px" y="0px"
	 viewBox="0 0 171.8 57" style="enable-background:new 0 0 171.8 57;" xml:space="preserve">
<style type="text/css">
	.st0{opacity:0.4;fill:#FAFAF9;stroke:#F5F5F5;stroke-miterlimit:10;}
	.st1{fill:#383838;}
	.st2{font-family:'FiraSans-Hair';}
	.st3{font-size:31.4586px;}
	.st4{fill:#464649;}
</style>
<polygon class="st0" points="30.6,7.5 13.4,16.9 23,46.6 163.6,45.1 153.7,14.1 "/>
<text transform="matrix(1 0 0 1 23.7029 38.7087)" class="st1 st2 st3">About Me</text>
<g>
	<g>
		<path class="st4" d="M2.2,20.5C13.9,14.1,25.7,7.7,37.4,1.2C37.8,1,37,1,36.9,1.1C25.1,7.5,13.4,14,1.6,20.4
			C1.3,20.6,2,20.6,2.2,20.5L2.2,20.5z"/>
	</g>
</g>
<g>
	<g>
		<path class="st4" d="M18.2,6.9c16.1,0.9,32.3,1.8,48.4,2.7c25.7,1.4,51.4,2.8,77.1,4.2c5.8,0.3,11.7,0.6,17.5,1
			c0.6,0-0.1-0.5-0.4-0.5c-16.1-0.9-32.3-1.8-48.4-2.7C86.7,10.2,61,8.8,35.3,7.4c-5.8-0.3-11.7-0.6-17.5-1
			C17.1,6.4,17.9,6.9,18.2,6.9L18.2,6.9z"/>
	</g>
</g>
<g>
	<g>
		<path class="st4" d="M6.7,6.9c3.8,12.3,7.7,24.5,11.5,36.8c0.6,1.8,1.1,3.5,1.7,5.3c0.1,0.2,0.4,0.2,0.5,0.2
			C36.9,49,53.5,48.8,70,48.6c26.4-0.3,52.8-0.6,79.1-0.9c6.1-0.1,12.1-0.1,18.2-0.2c0.5,0-0.1-0.3-0.3-0.3
			c-7.9,0.1-15.7,0.2-23.6,0.3c-17.1,0.2-34.2,0.4-51.4,0.6c-16.9,0.2-33.9,0.4-50.8,0.6c-5.4,0.1-10.7,0.1-16.1,0.2
			c-1.4,0-2.8,0-4.1,0c-0.3,0-0.6,0.1-0.9,0c0,0,0.3,0.4,0.3-0.2c0-0.7-0.6-1.8-0.8-2.5c-0.5-1.5-0.9-2.9-1.4-4.4
			c-1.3-4.1-2.5-8.1-3.8-12.2C12.3,22.5,10,15.4,7.8,8.3C7.7,7.8,7.5,7.4,7.4,7C7.3,6.8,6.6,6.7,6.7,6.9L6.7,6.9z"/>
	</g>
</g>
<g>
	<g>
		<path class="st4" d="M151.7,9.4c4.1,12.8,8.2,25.5,12.3,38.3c0.6,1.8,1.2,3.6,1.8,5.5c0.1,0.3,1.1,0.2,1,0
			c-4.1-12.8-8.2-25.5-12.3-38.3c-0.6-1.8-1.2-3.6-1.8-5.5C152.6,9.1,151.6,9.2,151.7,9.4L151.7,9.4z"/>
	</g>
</g>
<g>
	<g>
		<path class="st4" d="M6.4,21C17.8,14.8,29.2,8.5,40.7,2.2C41.1,2,40.2,1.9,40,2.1C28.5,8.3,17.1,14.6,5.6,20.9
			C5.2,21.1,6.1,21.2,6.4,21L6.4,21z"/>
	</g>
</g>
<g>
	<g>
		<path class="st4" d="M155,11.5c3.9,12.5,7.9,24.9,11.8,37.4c0.6,1.8,1.1,3.6,1.7,5.4c0.1,0.2,0.8,0.3,0.7,0.1
			c-3.9-12.5-7.9-24.9-11.8-37.4c-0.6-1.8-1.1-3.6-1.7-5.4C155.6,11.3,154.9,11.3,155,11.5L155,11.5z"/>
	</g>
</g>
<g>
	<g>
		<path class="st4" d="M11.5,12.5c4.1,12.6,8.1,25.1,12.2,37.7c0.6,1.8,1.2,3.6,1.7,5.4c0.1,0.3,1.1,0.4,1,0.1
			C22.3,43,18.2,30.5,14.2,17.9c-0.6-1.8-1.2-3.6-1.7-5.4C12.3,12.3,11.4,12.2,11.5,12.5L11.5,12.5z"/>
	</g>
</g>
<g>
	<g>
		<path class="st4" d="M13.3,46.9c17.7-0.2,35.3-0.4,53-0.6c28.2-0.3,56.4-0.6,84.6-0.9c6.5-0.1,13-0.1,19.5-0.2
			c0.6,0-0.1-0.5-0.4-0.5c-17.7,0.2-35.3,0.4-53,0.6c-28.2,0.3-56.4,0.6-84.6,0.9c-6.5,0.1-13,0.1-19.5,0.2
			C12.3,46.5,13,46.9,13.3,46.9L13.3,46.9z"/>
	</g>
</g>
<g>
	<g>
		<path class="st4" d="M30.4,4.9c14.1,0.8,28.2,1.5,42.2,2.3C95,8.5,117.3,9.7,139.7,11c5.2,0.3,10.3,0.6,15.5,0.9
			c0.3,0,1.1-0.4,0.4-0.4c-14.1-0.8-28.2-1.5-42.2-2.3C91,7.8,68.6,6.6,46.3,5.4C41.1,5.1,36,4.8,30.8,4.5
			C30.5,4.5,29.7,4.9,30.4,4.9L30.4,4.9z"/>
	</g>
</g>
<g>
	<g>
		<path class="st4" d="M5.8,24.5c6-3.3,11.9-6.6,17.9-9.8c-0.3-0.1-0.6-0.2-0.9-0.3c-1.5,4.1-3,8.2-4.4,12.2c0.3,0.1,0.6,0.1,1,0.2
			c-2.1-6.1-4.2-12.2-6.3-18.3c-0.1-0.3-1-0.4-1-0.2c2.1,6.1,4.2,12.2,6.3,18.3c0.1,0.2,0.9,0.5,1,0.2c1.5-4.1,3-8.2,4.4-12.2
			c0.1-0.3-0.8-0.4-0.9-0.3c-6,3.3-11.9,6.6-17.9,9.8C4.7,24.3,5.5,24.7,5.8,24.5L5.8,24.5z"/>
	</g>
</g>
</svg>
