<?xml version="1.0" encoding="utf-8"?>
<!-- Generator: Adobe Illustrator 19.2.1, SVG Export Plug-In . SVG Version: 6.00 Build 0)  -->
<svg version="1.1" id="Layer_1" xmlns="http://www.w3.org/2000/svg" xmlns:xlink="http://www.w3.org/1999/xlink" x="0px" y="0px"
	 viewBox="0 0 166.2 46.1" style="enable-background:new 0 0 166.2 46.1;" xml:space="preserve">
<style type="text/css">
	.st0{opacity:0.4;fill:#F5F5F5;}
	.st1{fill:#333333;}
	.st2{font-family:'FiraSans-Hair';}
	.st3{font-size:30.8535px;}
</style>
<polygon class="st0" points="38.6,6.4 13.9,22.8 35.7,38.2 131.2,38.2 152.3,23.5 126.8,6.7 "/>
<text transform="matrix(1 0 0 1 31.5644 31.8958)" class="st1 st2 st3">Contact</text>
<g>
	<g>
		<path class="st1" d="M126,3.4c9.7,6.6,19.5,13.1,29.2,19.7c2.1,1.4,4.1,2.8,6.2,4.2c0.1,0.1,0.9,0.3,0.9,0.1c0-2.7,0-5.4,0-8
			c0-0.3-0.7-0.4-0.9-0.3c-11.1,7.8-22.1,15.7-33.2,23.5c-0.2,0.1,0.7,0.5,0.9,0.3c11.1-7.8,22.1-15.7,33.2-23.5
			c-0.3-0.1-0.6-0.2-0.9-0.3c0,2.7,0,5.4,0,8c0.3,0,0.6,0,0.9,0.1C152.1,20.3,142,13.5,132,6.8c-1.7-1.2-3.4-2.3-5.2-3.5
			C126.6,3.1,125.6,3.1,126,3.4L126,3.4z"/>
	</g>
</g>
<g>
	<g>
		<path class="st1" d="M119,1.7c13.2,8.7,26.5,17.4,39.7,26.1c1.9,1.2,3.8,2.5,5.7,3.7c0.2,0.1,0.9,0,0.6-0.2
			c-13.2-8.7-26.5-17.4-39.7-26.1c-1.9-1.2-3.8-2.5-5.7-3.7C119.4,1.4,118.7,1.5,119,1.7L119,1.7z"/>
	</g>
</g>
<g>
	<g>
		<path class="st1" d="M121.6,44.8c12.8-8.9,25.5-17.7,38.3-26.6c1.8-1.3,3.7-2.6,5.5-3.8c0.3-0.2-0.4-0.2-0.6-0.1
			c-12.8,8.9-25.5,17.7-38.3,26.6c-1.8,1.3-3.7,2.6-5.5,3.8C120.8,44.9,121.5,44.9,121.6,44.8L121.6,44.8z"/>
	</g>
</g>
<g>
	<g>
		<path class="st1" d="M39.3,2.7c-10,6.7-20,13.5-30.1,20.2c-1.8,1.2-3.6,2.4-5.4,3.6c0.3,0.1,0.6,0.1,1,0.2c0-2.7,0-5.4,0-8
			c-0.3,0-0.6,0-0.9,0C15,26.5,26.1,34.4,37.1,42.2c0.2,0.1,1.2,0.1,0.7-0.2C26.8,34.2,15.8,26.4,4.7,18.5c-0.1-0.1-0.9-0.3-0.9,0
			c0,2.7,0,5.4,0,8c0,0.3,0.8,0.3,1,0.2C15,20,25.1,13.1,35.2,6.3c1.7-1.1,3.3-2.2,5-3.4C40.4,2.8,39.6,2.5,39.3,2.7L39.3,2.7z"/>
	</g>
</g>
<g>
	<g>
		<path class="st1" d="M46.5,1C33.3,9.7,20.1,18.3,6.8,27c-1.9,1.2-3.8,2.5-5.7,3.7C1,30.8,1.7,31.1,1.9,31
			c13.2-8.7,26.5-17.4,39.7-26.1c1.9-1.2,3.8-2.5,5.7-3.7C47.4,1.1,46.7,0.8,46.5,1L46.5,1z"/>
	</g>
</g>
<g>
	<g>
		<path class="st1" d="M45.1,44.1C32.3,35.3,19.6,26.4,6.8,17.5C5,16.3,3.1,15,1.3,13.7c-0.2-0.1-0.9-0.1-0.6,0.1
			C13.5,22.7,26.3,31.5,39,40.4c1.8,1.3,3.7,2.6,5.5,3.8C44.7,44.3,45.4,44.4,45.1,44.1L45.1,44.1z"/>
	</g>
</g>
<g>
	<g>
		<path class="st1" d="M26.5,39.7c13.5,0,27.1,0,40.6,0c21.7,0,43.3,0,65,0c5,0,9.9,0,14.9,0c0.6,0-0.1-0.4-0.4-0.4
			c-13.5,0-27.1,0-40.6,0c-21.7,0-43.3,0-65,0c-5,0-9.9,0-14.9,0C25.5,39.2,26.2,39.7,26.5,39.7L26.5,39.7z"/>
	</g>
</g>
<g>
	<g>
		<path class="st1" d="M21.9,5.2c13,0,26,0,38.9,0c20.5,0,41,0,61.5,0c4.7,0,9.5,0,14.2,0c0.6,0-0.1-0.5-0.4-0.5c-13,0-26,0-38.9,0
			c-20.5,0-41,0-61.5,0c-4.7,0-9.5,0-14.2,0C20.9,4.8,21.6,5.2,21.9,5.2L21.9,5.2z"/>
	</g>
</g>
<g>
	<g>
		<path class="st1" d="M24.7,6.7c13,0,26,0,38.9,0c20.5,0,41,0,61.5,0c4.7,0,9.5,0,14.2,0c0.4,0,0.9-0.4,0.2-0.4c-13,0-26,0-38.9,0
			c-20.5,0-41,0-61.5,0c-4.7,0-9.5,0-14.2,0C24.5,6.3,24,6.7,24.7,6.7L24.7,6.7z"/>
	</g>
</g>
<g>
	<g>
		<path class="st1" d="M22.2,38.1c13.5,0,27.1,0,40.6,0c21.7,0,43.3,0,65,0c5,0,9.9,0,14.9,0c0.6,0,0.6-0.4,0-0.4
			c-13.5,0-27.1,0-40.6,0c-21.7,0-43.3,0-65,0c-5,0-9.9,0-14.9,0C21.6,37.7,21.6,38.1,22.2,38.1L22.2,38.1z"/>
	</g>
</g>
</svg>
