<?xml version="1.0" encoding="utf-8"?>
<!-- Generator: Adobe Illustrator 19.2.1, SVG Export Plug-In . SVG Version: 6.00 Build 0)  -->
<svg version="1.1" id="Layer_1" xmlns="http://www.w3.org/2000/svg" xmlns:xlink="http://www.w3.org/1999/xlink" x="0px" y="0px"
	 viewBox="0 0 649 153" style="enable-background:new 0 0 649 153;" xml:space="preserve">
<style type="text/css">
	.st0{font-family:'MuseoSansDisplay-Hairline';}
	.st1{font-size:40px;}
	.st2{fill:#666666;}
	.st3{font-family:'BrimNarrow-Combined2';}
	.st4{font-size:60px;}
	.st5{letter-spacing:3.4;}
	.st6{font-size:24px;}
	.st7{letter-spacing:1;}
	.st8{fill:none;stroke:#278FA4;stroke-miterlimit:10;}
	.st9{fill:#278FA4;}
</style>
<text transform="matrix(1 0 0 1 103 35)" class="st0 st1">Hey! I’m...</text>
<text transform="matrix(1.4669 0 0 1 151 107)" class="st2 st3 st4 st5">Rylin</text>
<text transform="matrix(1 0 0 1 379 141)" class="st0 st6 st7">Full Stack Web Dev</text>
<line class="st8" x1="480" y1="82.5" x2="629" y2="82.5"/>
<line class="st8" x1="10" y1="82.5" x2="162" y2="82.5"/>
<line class="st8" x1="10" y1="89.5" x2="162" y2="89.5"/>
<line class="st8" x1="480" y1="89.5" x2="629" y2="89.5"/>
<circle class="st9" cx="14.2" cy="79.2" r="1.3"/>
<circle class="st9" cx="20.4" cy="79.2" r="1.3"/>
<circle class="st9" cx="26.6" cy="79.2" r="1.3"/>
<circle class="st9" cx="32.6" cy="79.2" r="1.3"/>
<circle class="st9" cx="38.5" cy="79.2" r="1.3"/>
<circle class="st9" cx="602" cy="93.1" r="1.3"/>
<circle class="st9" cx="608.3" cy="93.1" r="1.3"/>
<circle class="st9" cx="614.5" cy="93.1" r="1.3"/>
<circle class="st9" cx="620.4" cy="93.1" r="1.3"/>
<circle class="st9" cx="626.4" cy="93.1" r="1.3"/>
</svg>
