<?xml version="1.0" encoding="utf-8"?>
<!-- Generator: Adobe Illustrator 19.2.1, SVG Export Plug-In . SVG Version: 6.00 Build 0)  -->
<svg version="1.1" id="Layer_1" xmlns="http://www.w3.org/2000/svg" xmlns:xlink="http://www.w3.org/1999/xlink" x="0px" y="0px"
	 viewBox="0 0 165.6 66.4" style="enable-background:new 0 0 165.6 66.4;" xml:space="preserve">
<style type="text/css">
	.st0{opacity:0.5;fill:#F5F5F5;}
	.st1{fill:#2B2B2B;}
	.st2{font-family:'FiraSans-Hair';}
	.st3{font-size:34.8188px;}
	.st4{fill:#333333;}
</style>
<polygon class="st0" points="13.5,15.5 155,8.9 146.7,56.9 11.3,45.9 "/>
<text transform="matrix(1 0 0 1 22.5149 42.7716)" class="st1 st2 st3">Projects</text>
<g>
	<g>
		<path class="st4" d="M1,47.8c16.8,1.3,33.6,2.7,50.5,4c26.6,2.1,53.2,4.2,79.7,6.4c6.1,0.5,12.2,1,18.3,1.5c0,0,0.1,0,0.1,0
			c2.6-15.4,5.3-30.7,7.9-46.1c0.4-2.2,0.8-4.4,1.1-6.5c0-0.1-0.3-0.2-0.4-0.2c-17.2,0.8-34.3,1.6-51.5,2.4
			c-27.4,1.3-54.8,2.6-82.1,3.9c-6.3,0.3-12.6,0.6-18.9,0.9c-0.3,0,0.2,0.3,0.3,0.2c6.6-0.3,13.3-0.6,19.9-0.9
			c15.2-0.7,30.4-1.4,45.6-2.2c16.7-0.8,33.4-1.6,50-2.4c11.1-0.5,22.1-1,33.2-1.6c1,0,2.2,0.1,3.2-0.1c0.1,0,0.5-0.1,0.6,0
			c-0.6-0.3-0.2-0.1-0.4,0.4c-0.8,1.6-0.8,4.4-1.1,6.1c-0.6,3.6-1.2,7.1-1.8,10.7c-1.4,8.1-2.8,16.3-4.2,24.4
			c-0.5,2.8-1,5.6-1.4,8.4c-0.1,0.4-0.4,2.4-0.3,2.4c-0.3,0.2-1.7-0.1-2-0.2c-1.5-0.1-3.1-0.2-4.6-0.4c-5.2-0.4-10.4-0.8-15.6-1.2
			c-15.6-1.2-31.3-2.5-46.9-3.7C63.7,52.6,47.4,51.3,31,50c-9.6-0.8-19.2-1.5-28.8-2.3c-0.5,0-0.9-0.1-1.4-0.1
			C0.5,47.6,0.9,47.8,1,47.8L1,47.8z"/>
	</g>
</g>
<g>
	<g>
		<path class="st4" d="M160,57.8c-17.7-1.4-35.3-2.9-53-4.3c-27.9-2.3-55.8-4.5-83.8-6.8c-6.4-0.5-12.8-1-19.2-1.6
			c-0.1,0-0.2,0-0.1,0.1c2.2,3.1,4.3,6.3,6.5,9.4c0,0.1,0.4,0.2,0.5,0.1c1-14.4,2.1-28.8,3.1-43.2c0.2-2.1,0.3-4.1,0.5-6.2
			c0-0.2-0.5-0.3-0.5-0.1c-1.1,15.5-2.3,31.1-3.4,46.6c-0.1,0.8-0.3,1.8-0.2,2.6c0,0.3,0.5,0.5,0.3,0.1c-0.3-0.7-0.9-1.4-1.4-2
			c-1.4-2-2.7-4-4.1-6c-0.1-0.2-0.8-1.4-1-1.1c0,0,0.1,0,0.2,0C5,45.1,7,45.6,7.6,45.7c2.2,0.2,4.4,0.4,6.6,0.5
			C31.2,47.6,48.1,49,65,50.3c20.2,1.6,40.5,3.3,60.7,4.9c7.5,0.6,15.1,1.2,22.6,1.8c2.5,0.2,4.9,0.4,7.4,0.6
			c1.3,0.1,2.7,0.4,3.9,0.3c0.2,0,0.4,0,0.5,0C160.6,58.1,160.2,57.8,160,57.8L160,57.8z"/>
	</g>
</g>
<g>
	<g>
		<path class="st4" d="M146.1,63.3c3.1-18.1,6.3-36.1,9.4-54.2c0.5-2.6,0.9-5.2,1.4-7.8c-0.3-0.1-0.6-0.1-0.9-0.2
			c1.9,2.2,3.6,4.7,5.6,6.7c0.6,0.6,1.1,0.7,0,0.6c-2.6-0.2-5.4,0.3-8,0.4c-11.6,0.5-23.3,1.1-34.9,1.6c-29.5,1.4-59,2.7-88.5,4.1
			c-7,0.3-14.1,0.7-21.1,1c-0.5,0,0.3,0.5,0.6,0.5c17.3-0.8,34.6-1.6,51.9-2.4c27.5-1.3,55-2.6,82.6-3.8c6.3-0.3,12.6-0.6,18.8-0.9
			c0.1,0,0.2-0.1,0.1-0.2c-2.1-2.5-4.2-5-6.3-7.5C156.8,1,156,0.7,155.9,1c-3.1,18.1-6.3,36.1-9.4,54.2c-0.5,2.6-0.9,5.2-1.4,7.8
			C145.1,63.3,146,63.6,146.1,63.3L146.1,63.3z"/>
	</g>
</g>
<g>
	<g>
		<path class="st4" d="M13.8,57.5c0.8-12.2,1.7-24.3,2.5-36.5c0-0.1-0.5-0.1-0.5,0c-0.8,12.2-1.7,24.3-2.5,36.5
			C13.3,57.6,13.8,57.6,13.8,57.5L13.8,57.5z"/>
	</g>
</g>
<g>
	<g>
		<path class="st4" d="M18.2,36.7c-0.3,6.3-0.7,12.5-1,18.8c0,0.1,0.2,0.1,0.2,0.1c0.3-6.3,0.7-12.5,1-18.8
			C18.4,36.6,18.2,36.6,18.2,36.7L18.2,36.7z"/>
	</g>
</g>
</svg>
